#N canvas 0 29 1366 739 10;
#X text 228 57 <-- translate midi to frequency (Hz);
#X obj 20 29 inlet;
#X obj 113 29 inlet;
#X obj 113 57 mtof;
#X text 301 202 returns 0 for even channel;
#X text 217 183 <-- modulo to determine L or R channel;
#X text 308 221 returns 1 for odd channel;
#X obj 113 106 osc~;
#X obj 114 238 outlet~;
#X text 207 29 <-- global channel index and midi value;
#X connect 2 0 3 0;
#X connect 3 0 7 0;
#X connect 7 0 8 0;
#X coords 0 739 1 738 85 60 0;
