#N canvas 0 29 1366 739 10;
#X text 228 57 <-- translate midi to frequency (Hz);
#X obj 20 238 outlet;
#X obj 20 29 inlet;
#X obj 66 29 inlet;
#X obj 113 29 inlet;
#X obj 113 57 mtof;
#X obj 20 211 pack f f;
#X obj 20 183 % 2;
#X text 186 29 <-- channel num \, algorithm num \, midi value;
#X text 301 202 returns 0 for even channel;
#X text 217 183 <-- modulo to determine L or R channel;
#X text 308 221 returns 1 for odd channel;
#X connect 2 0 7 0;
#X connect 4 0 5 0;
#X connect 5 0 6 1;
#X connect 6 0 1 0;
#X connect 7 0 6 0;
#X coords 0 739 1 738 85 60 0;
