#N canvas 59 223 450 300 10;
#X floatatom 63 62 5 0 0 0 - - -, f 5;
#X obj 31 136 netsend;
#X floatatom 31 166 5 0 0 0 - - -, f 5;
#X msg 63 87 send \$1;
#X msg 31 17 connect 10.10.10.3 13000;
#X connect 0 0 3 0;
#X connect 1 0 2 0;
#X connect 3 0 1 0;
#X connect 4 0 1 0;
