#N canvas 309 86 686 477 10;
#X obj 31 297 netsend;
#X floatatom 31 327 5 0 0 0 - - -, f 5;
#X msg 31 17 connect 10.10.10.3 13000;
#X floatatom 307 83 5 0 0 0 - - -, f 5;
#X msg 243 136 bang;
#X obj 307 105 t b f;
#X floatatom 397 84 5 0 0 0 - - -, f 5;
#X obj 397 105 t b f;
#X obj 234 168 pack 0 0 0;
#X floatatom 234 84 5 0 0 0 - - -, f 5;
#X msg 234 223 send \$1 \$2 \$3;
#X obj 478 245 unpack f f;
#X floatatom 478 267 5 0 0 0 - - -, f 5;
#X floatatom 517 267 5 0 0 0 - - -, f 5;
#X obj 478 222 route 0 1 2 3 4 5 6 7;
#X text 231 67 channel;
#X text 307 67 algorithm;
#X text 400 65 midi;
#X obj 566 245 unpack f f;
#X floatatom 566 267 5 0 0 0 - - -, f 5;
#X floatatom 605 267 5 0 0 0 - - -, f 5;
#X obj 478 287 unpack f f;
#X floatatom 478 309 5 0 0 0 - - -, f 5;
#X floatatom 517 309 5 0 0 0 - - -, f 5;
#X obj 566 287 unpack f f;
#X floatatom 566 309 5 0 0 0 - - -, f 5;
#X floatatom 605 309 5 0 0 0 - - -, f 5;
#X obj 478 329 unpack f f;
#X floatatom 478 351 5 0 0 0 - - -, f 5;
#X floatatom 517 351 5 0 0 0 - - -, f 5;
#X obj 566 329 unpack f f;
#X floatatom 566 351 5 0 0 0 - - -, f 5;
#X floatatom 605 351 5 0 0 0 - - -, f 5;
#X obj 478 371 unpack f f;
#X floatatom 478 393 5 0 0 0 - - -, f 5;
#X floatatom 517 393 5 0 0 0 - - -, f 5;
#X obj 566 371 unpack f f;
#X floatatom 566 393 5 0 0 0 - - -, f 5;
#X floatatom 605 393 5 0 0 0 - - -, f 5;
#X text 463 245 0;
#X text 463 287 2;
#X text 643 245 1;
#X text 643 287 3;
#X text 463 330 4;
#X text 643 330 5;
#X text 463 371 6;
#X text 643 371 7;
#X connect 0 0 1 0;
#X connect 2 0 0 0;
#X connect 3 0 5 0;
#X connect 4 0 8 0;
#X connect 5 0 4 0;
#X connect 5 1 8 1;
#X connect 6 0 7 0;
#X connect 7 0 4 0;
#X connect 7 1 8 2;
#X connect 8 0 10 0;
#X connect 8 0 14 0;
#X connect 9 0 8 0;
#X connect 10 0 0 0;
#X connect 11 0 12 0;
#X connect 11 1 13 0;
#X connect 14 0 11 0;
#X connect 14 1 18 0;
#X connect 14 2 21 0;
#X connect 14 3 24 0;
#X connect 14 4 27 0;
#X connect 14 5 30 0;
#X connect 14 6 33 0;
#X connect 14 7 36 0;
#X connect 18 0 19 0;
#X connect 18 1 20 0;
#X connect 21 0 22 0;
#X connect 21 1 23 0;
#X connect 24 0 25 0;
#X connect 24 1 26 0;
#X connect 27 0 28 0;
#X connect 27 1 29 0;
#X connect 30 0 31 0;
#X connect 30 1 32 0;
#X connect 33 0 34 0;
#X connect 33 1 35 0;
#X connect 36 0 37 0;
#X connect 36 1 38 0;
