#N canvas 458 47 451 700 10;
#X obj 230 374 netsend;
#X floatatom 230 404 5 0 0 0 - - -, f 5;
#X floatatom 435 83 5 0 0 0 - - -, f 5;
#X obj 435 105 t b f;
#X floatatom 525 84 5 0 0 0 - - -, f 5;
#X obj 525 105 t b f;
#X floatatom 230 84 5 0 0 0 - - -, f 5;
#X floatatom 1125 277 5 0 0 0 - - -, f 5;
#X floatatom 1164 277 5 0 0 0 - - -, f 5;
#X obj 1125 219 route 0 1 2 3 4 5 6 7;
#X text 435 64 algorithm;
#X text 528 62 midi;
#X floatatom 1225 277 5 0 0 0 - - -, f 5;
#X floatatom 1264 277 5 0 0 0 - - -, f 5;
#X floatatom 1125 319 5 0 0 0 - - -, f 5;
#X floatatom 1164 319 5 0 0 0 - - -, f 5;
#X floatatom 1225 319 5 0 0 0 - - -, f 5;
#X floatatom 1264 319 5 0 0 0 - - -, f 5;
#X floatatom 1125 361 5 0 0 0 - - -, f 5;
#X floatatom 1164 361 5 0 0 0 - - -, f 5;
#X floatatom 1225 361 5 0 0 0 - - -, f 5;
#X floatatom 1264 361 5 0 0 0 - - -, f 5;
#X floatatom 1125 403 5 0 0 0 - - -, f 5;
#X floatatom 1164 403 5 0 0 0 - - -, f 5;
#X floatatom 1225 403 5 0 0 0 - - -, f 5;
#X floatatom 1264 403 5 0 0 0 - - -, f 5;
#X text 1110 255 0;
#X text 1110 297 2;
#X text 1318 255 1;
#X text 1318 297 3;
#X text 1110 340 4;
#X text 1318 340 5;
#X text 1110 381 6;
#X text 1318 381 7;
#X msg 20 138 connect 10.10.10.1 13000;
#X obj 290 374 netsend;
#X floatatom 290 404 5 0 0 0 - - -, f 5;
#X obj 351 374 netsend;
#X floatatom 351 404 5 0 0 0 - - -, f 5;
#X obj 412 374 netsend;
#X floatatom 412 404 5 0 0 0 - - -, f 5;
#X msg 20 182 connect 10.10.10.2 13000;
#X msg 20 225 connect 10.10.10.3 13000;
#X msg 20 268 connect 10.10.10.4 13000;
#X obj 230 255 route 0 1 2 3 4 5 6 7;
#X obj 473 374 print;
#X text 27 119 route message to stream;
#X text 388 256 4 RPis w/ 2 channels each;
#X text 20 29 On private local network;
#X text 230 29 send and update seed data to the networked nodes;
#X msg 20 331 connect localhost 13000;
#X obj 20 159 s pi0;
#X obj 20 203 s pi1;
#X obj 20 246 s pi2;
#X obj 20 289 s pi3;
#X text 17 312 local debug;
#X obj 225 332 r pi0;
#X obj 413 332 r pi3;
#X obj 350 332 r pi2;
#X obj 294 332 r pi1;
#X obj 262 159 % 2;
#X obj 230 202 pack 0 0 0 0;
#X obj 1125 255 unpack f f f;
#X obj 1125 297 unpack f f f;
#X obj 1125 339 unpack f f f;
#X obj 1125 381 unpack f f f;
#X obj 1225 255 unpack f f f;
#X obj 1225 297 unpack f f f;
#X obj 1225 339 unpack f f f;
#X obj 1225 381 unpack f f f;
#X obj 230 103 t f f;
#X text 227 64 global channel;
#X text 266 142 local channel;
#X text 27 49 initialize/open sockets;
#X text 13 69 to RPi nodes w/ statci IP;
#X text 585 223 <-- using global channel index \, route and send the
message;
#X text 725 242 to the proper RPi on the local network;
#X text 1034 181 rudimentary look at current params;
#X text 1041 199 algorithm # and midi value in use;
#X msg 230 228 \$1 send \$4 \$2 \$1 \$3;
#X connect 0 0 1 0;
#X connect 2 0 3 0;
#X connect 3 0 6 0;
#X connect 3 1 61 1;
#X connect 4 0 5 0;
#X connect 5 0 6 0;
#X connect 5 1 61 2;
#X connect 6 0 70 0;
#X connect 9 0 62 0;
#X connect 9 1 66 0;
#X connect 9 2 63 0;
#X connect 9 3 67 0;
#X connect 9 4 64 0;
#X connect 9 5 68 0;
#X connect 9 6 65 0;
#X connect 9 7 69 0;
#X connect 34 0 51 0;
#X connect 35 0 36 0;
#X connect 37 0 38 0;
#X connect 39 0 40 0;
#X connect 41 0 52 0;
#X connect 42 0 53 0;
#X connect 43 0 54 0;
#X connect 44 0 0 0;
#X connect 44 1 0 0;
#X connect 44 2 35 0;
#X connect 44 3 35 0;
#X connect 44 4 37 0;
#X connect 44 5 37 0;
#X connect 44 6 39 0;
#X connect 44 7 39 0;
#X connect 44 8 45 0;
#X connect 50 0 0 0;
#X connect 56 0 0 0;
#X connect 57 0 39 0;
#X connect 58 0 37 0;
#X connect 59 0 35 0;
#X connect 60 0 61 3;
#X connect 61 0 9 0;
#X connect 61 0 79 0;
#X connect 62 0 7 0;
#X connect 62 1 8 0;
#X connect 63 0 14 0;
#X connect 63 1 15 0;
#X connect 64 0 18 0;
#X connect 64 1 19 0;
#X connect 65 0 22 0;
#X connect 65 1 23 0;
#X connect 66 0 12 0;
#X connect 66 1 13 0;
#X connect 67 0 16 0;
#X connect 67 1 17 0;
#X connect 68 0 20 0;
#X connect 68 1 21 0;
#X connect 69 0 24 0;
#X connect 69 1 25 0;
#X connect 70 0 61 0;
#X connect 70 1 60 0;
#X connect 79 0 44 0;
