#N canvas 686 47 337 700 12;
#X msg 412 52 \; pd dsp 1;
#X msg 493 52 \; pd dsp 0;
#X obj 25 350 osc~;
#X obj 24 385 dac~ 1 2;
#X obj 64 127 print TCP;
#X floatatom 150 127 5 0 0 0 - - -, f 5;
#X obj 25 96 netreceive 13000;
#X text 23 59 send control message over local network via TCP;
#X text 166 96 <-- open an instance of a network listener socket;
#X text 304 23 on/off Digital Signal Processing;
#X text 278 122 <-- optional: print data to console;
#X text 358 145 and list # of connections;
#X text 24 24 RPiZero Scaffolding;
#X obj 25 196 unpack f f f;
#X floatatom 25 226 5 0 0 0 - - -, f 5;
#X floatatom 71 226 5 0 0 0 - - -, f 5;
#X floatatom 118 227 5 0 0 0 - - -, f 5;
#X obj 25 317 route 0 1;
#X obj 85 349 osc~;
#X text 397 258 <-- choose algorithm;
#X text 413 349 <-- choose channel;
#X obj 25 260 abstraction-scaffold;
#X obj 134 534 +~;
#X obj 134 466 +~;
#X obj 289 461 +~;
#X obj 289 408 osc~ 440;
#X obj 134 413 osc~ 330;
#X obj 155 437 osc~ 330.2;
#X obj 310 431 osc~ 440.33;
#X obj 444 458 +~;
#X obj 445 408 osc~ 587;
#X obj 466 431 osc~ 587.25;
#X obj 135 503 +~;
#X connect 2 0 3 0;
#X connect 6 0 4 0;
#X connect 6 0 13 0;
#X connect 6 1 5 0;
#X connect 13 0 14 0;
#X connect 13 1 15 0;
#X connect 13 2 16 0;
#X connect 14 0 21 0;
#X connect 15 0 21 1;
#X connect 16 0 21 2;
#X connect 17 0 2 0;
#X connect 17 1 18 0;
#X connect 18 0 3 1;
#X connect 21 0 17 0;
#X connect 23 0 32 0;
#X connect 24 0 32 1;
#X connect 25 0 24 0;
#X connect 26 0 23 0;
#X connect 27 0 23 1;
#X connect 28 0 24 1;
#X connect 29 0 22 1;
#X connect 30 0 29 0;
#X connect 31 0 29 1;
#X connect 32 0 22 0;
